<svg width="64" height="64" viewBox="0 0 64 64" fill="none" xmlns="http://www.w3.org/2000/svg">
<path d="M58.6667 9.33325H5.33337C3.12424 9.33325 1.33337 11.1241 1.33337 13.3333V50.6666C1.33337 52.8757 3.12424 54.6666 5.33337 54.6666H58.6667C60.8758 54.6666 62.6667 52.8757 62.6667 50.6666V13.3333C62.6667 11.1241 60.8758 9.33325 58.6667 9.33325Z" fill="#243747"/>
<path d="M25.3334 42.6666C31.2245 42.6666 36.0001 37.891 36.0001 31.9999C36.0001 26.1089 31.2245 21.3333 25.3334 21.3333C19.4424 21.3333 14.6667 26.1089 14.6667 31.9999C14.6667 37.891 19.4424 42.6666 25.3334 42.6666Z" fill="#E61C24"/>
<path d="M38.5788 42.6666C44.4698 42.6666 49.2454 37.891 49.2454 31.9999C49.2454 26.1089 44.4698 21.3333 38.5788 21.3333C32.6877 21.3333 27.9121 26.1089 27.9121 31.9999C27.9121 37.891 32.6877 42.6666 38.5788 42.6666Z" fill="#F99F1B"/>
<path d="M31.9561 23.6479C30.6954 24.6446 29.6766 25.9137 28.9763 27.3602C28.2759 28.8066 27.9121 30.3929 27.9121 31.9999C27.9121 33.607 28.2759 35.1933 28.9763 36.6397C29.6766 38.0862 30.6954 39.3553 31.9561 40.3519C33.2168 39.3553 34.2355 38.0862 34.9359 36.6397C35.6362 35.1933 36 33.607 36 31.9999C36 30.3929 35.6362 28.8066 34.9359 27.3602C34.2355 25.9137 33.2168 24.6446 31.9561 23.6479Z" fill="#F26622"/>
</svg>
