<svg width="24" height="24" viewBox="0 0 24 24" fill="none" xmlns="http://www.w3.org/2000/svg">
<path d="M12.9998 4.50001V3.50026V3.49126C12.9998 3.35026 13.0575 3.22201 13.1498 3.12976C13.2043 3.08149 13.2682 3.04505 13.3375 3.02271C13.4069 3.00038 13.48 2.99265 13.5525 3.00001H13.5503C17.5492 3.27451 20.7255 6.45076 20.9985 10.425L21 10.4498L21.0007 10.4813C21.001 10.6099 20.9544 10.7341 20.8695 10.8308V10.83C20.8212 10.8787 20.7635 10.917 20.7 10.9428C20.6364 10.9686 20.5683 10.9812 20.4998 10.98H19.5H19.4985C19.3733 10.9799 19.2527 10.9329 19.1605 10.8482C19.0683 10.7635 19.0112 10.6473 19.0005 10.5225V10.5203C18.765 7.57051 16.4288 5.23501 13.5 5.00101L13.479 5.00026C13.35 4.99504 13.228 4.94014 13.1385 4.84704C13.0491 4.75395 12.9991 4.62987 12.999 4.50076V4.50001H12.9998ZM13.17 7.14001C13.1159 7.18741 13.0727 7.24592 13.0433 7.31154C13.014 7.37717 12.9991 7.44836 12.9998 7.52026V8.52751C12.9998 8.76676 13.1708 8.96551 13.3973 9.00901H13.4003C13.7908 9.08121 14.1511 9.26772 14.4355 9.54491C14.7199 9.82209 14.9156 10.1775 14.9978 10.566L15 10.5795C15.0214 10.6933 15.0824 10.7959 15.1722 10.8691C15.2619 10.9422 15.3747 10.9813 15.4905 10.9793H16.4948C16.644 10.9793 16.7782 10.914 16.8698 10.8098C16.9168 10.7548 16.9518 10.6905 16.9725 10.6211C16.9931 10.5517 16.999 10.4788 16.9897 10.407V10.4093C16.8619 9.55616 16.4656 8.76596 15.8584 8.1533C15.2511 7.54064 14.4644 7.13738 13.6125 7.00201L13.59 6.99901C13.5171 6.99276 13.4437 7.00203 13.3747 7.0262C13.3057 7.05038 13.2426 7.08891 13.1895 7.13926L13.17 7.14001ZM17.67 21H17.6715C18.2265 21 18.7275 20.775 19.0897 20.4098L20.7803 18.72C20.8615 18.6393 20.9233 18.541 20.9607 18.4327C20.9981 18.3245 21.0102 18.2091 20.9961 18.0954C20.982 17.9817 20.942 17.8728 20.8792 17.7769C20.8165 17.6811 20.7326 17.6009 20.634 17.5425L20.6302 17.5403L16.77 15.2903C16.5791 15.1792 16.3568 15.1347 16.1378 15.1636C15.9189 15.1925 15.7158 15.2932 15.5602 15.45L13.6702 17.34C13.5944 17.4169 13.4956 17.4672 13.3888 17.4831C13.2819 17.4991 13.1728 17.4799 13.0778 17.4285L13.08 17.43L12.42 17.07C10.077 15.7935 8.2005 13.92 6.9555 11.6505L6.92025 11.58L6.57 10.92C6.51932 10.8251 6.5007 10.7163 6.51692 10.6099C6.53314 10.5036 6.58333 10.4053 6.66 10.3298L8.55 8.43976C8.70765 8.28361 8.80874 8.07935 8.83727 7.85929C8.86579 7.63924 8.82013 7.41595 8.7075 7.22476L8.70975 7.23001L6.45975 3.36976C6.40166 3.27065 6.32159 3.1862 6.22572 3.1229C6.12985 3.0596 6.02073 3.01915 5.90676 3.00466C5.7928 2.99017 5.67703 3.00203 5.56836 3.03932C5.4597 3.07661 5.36105 3.13835 5.28 3.21976L3.59025 4.91026C3.40305 5.09579 3.25449 5.31659 3.15317 5.5599C3.05186 5.80322 2.9998 6.0642 3 6.32776V6.99976C3.0015 8.73601 3.4425 10.368 4.2165 11.793L4.19025 11.7405L4.44 12.1905C6.1425 15.315 8.64525 17.817 11.676 19.473L11.7698 19.5203L12.2198 19.77C13.5998 20.5373 15.246 20.9925 16.9972 21H17.0002H17.67Z" fill="#FFCC33"/>
</svg>
