<svg width="60" height="60" viewBox="0 0 60 60" fill="none" xmlns="http://www.w3.org/2000/svg">
<path fill-rule="evenodd" clip-rule="evenodd" d="M26.023 24.1108V22.4078C25.432 22.3241 24.8359 22.2807 24.239 22.2778C16.939 22.2778 11 28.2178 11 35.5178C11 39.9958 13.238 43.9598 16.652 46.3568C14.366 43.9122 13.0952 40.6898 13.097 37.3428C13.097 30.1468 18.867 24.2788 26.023 24.1108Z" fill="#00F2EA"/>
<path fill-rule="evenodd" clip-rule="evenodd" d="M26.335 43.3889C29.592 43.3889 32.249 40.7979 32.37 37.5689L32.381 8.74395H37.647C37.5345 8.1421 37.4776 7.5312 37.477 6.91895H30.285L30.273 35.7449C30.153 38.9729 27.495 41.5629 24.239 41.5629C23.2614 41.5633 22.2985 41.3251 21.434 40.8689C21.9922 41.6478 22.7279 42.2826 23.5801 42.7208C24.4324 43.159 25.3767 43.388 26.335 43.3889ZM47.484 18.5279V16.9259C45.5487 16.9277 43.6549 16.3647 42.035 15.3059C43.4552 16.9412 45.3676 18.0718 47.485 18.5279" fill="#00F2EA"/>
<path fill-rule="evenodd" clip-rule="evenodd" d="M42.035 15.3051C40.4474 13.4886 39.5729 11.1576 39.574 8.74512H37.647C37.8965 10.0786 38.414 11.3475 39.1683 12.4751C39.9225 13.6027 40.8978 14.5655 42.035 15.3051ZM24.239 29.4711C22.6361 29.473 21.0993 30.1106 19.9659 31.244C18.8324 32.3774 18.1948 33.9142 18.193 35.5171C18.1941 36.6198 18.4964 37.7012 19.0675 38.6444C19.6385 39.5877 20.4565 40.357 21.433 40.8691C20.6895 39.8438 20.2891 38.6097 20.289 37.3431C20.2906 35.74 20.928 34.203 22.0615 33.0694C23.195 31.9357 24.7319 31.298 26.335 31.2961C26.958 31.2961 27.555 31.3991 28.119 31.5761V24.2331C27.528 24.1494 26.9319 24.106 26.335 24.1031C26.23 24.1031 26.127 24.1091 26.023 24.1111V29.7511C25.4461 29.5675 24.8444 29.473 24.239 29.4711Z" fill="#FF004F"/>
<path fill-rule="evenodd" clip-rule="evenodd" d="M47.484 18.5279V24.1179C43.754 24.1179 40.299 22.9249 37.477 20.8999V35.5169C37.477 42.8169 31.539 48.7559 24.239 48.7559C21.418 48.7559 18.802 47.8659 16.652 46.3559C17.8881 47.6889 19.3862 48.7522 21.0524 49.4792C22.7186 50.2063 24.517 50.5813 26.335 50.5809C33.635 50.5809 39.574 44.6419 39.574 37.3429V22.7259C42.4893 24.8222 45.9902 25.948 49.581 25.9439V18.7499C48.861 18.7499 48.161 18.6719 47.484 18.5269" fill="#FF004F"/>
<path fill-rule="evenodd" clip-rule="evenodd" d="M37.477 35.5171V20.9001C40.3922 22.9967 43.8933 24.1225 47.484 24.1181V18.5281C45.3669 18.0715 43.4549 16.9406 42.035 15.3051C40.8978 14.5655 39.9226 13.6027 39.1683 12.4751C38.4141 11.3475 37.8965 10.0786 37.647 8.74512H32.381L32.37 37.5701C32.249 40.7981 29.592 43.3891 26.335 43.3891C25.3768 43.3881 24.4325 43.1591 23.5803 42.7209C22.7281 42.2827 21.9924 41.6479 21.434 40.8691C20.4574 40.3571 19.6392 39.5879 19.068 38.6446C18.4967 37.7013 18.1942 36.6199 18.193 35.5171C18.1949 33.9142 18.8325 32.3774 19.9659 31.244C21.0994 30.1106 22.6361 29.473 24.239 29.4711C24.861 29.4711 25.458 29.5731 26.023 29.7511V24.1111C18.867 24.2791 13.097 30.1471 13.097 37.3431C13.097 40.8231 14.449 43.9911 16.652 46.3571C18.8729 47.9205 21.5231 48.7585 24.239 48.7561C31.539 48.7561 37.477 42.8171 37.477 35.5171Z" fill="white"/>
<rect x="0.5" y="0.5" width="59" height="59" rx="7.5" stroke="white"/>
</svg>
