<svg width="64" height="64" viewBox="0 0 64 64" fill="none" xmlns="http://www.w3.org/2000/svg">
<path d="M58.6667 9.33325H5.33337C3.12424 9.33325 1.33337 11.1241 1.33337 13.3333V50.6666C1.33337 52.8757 3.12424 54.6666 5.33337 54.6666H58.6667C60.8758 54.6666 62.6667 52.8757 62.6667 50.6666V13.3333C62.6667 11.1241 60.8758 9.33325 58.6667 9.33325Z" fill="#1A1876"/>
<path d="M25.6508 38.4001H29.1294L31.3068 25.6321H27.8268L25.6508 38.4001Z" fill="white"/>
<path d="M38.324 30.7587C37.108 30.168 36.3627 29.7733 36.3707 29.176C36.3707 28.6427 37.0014 28.0773 38.3707 28.0773C39.3797 28.0521 40.3799 28.2702 41.2867 28.7133L41.7587 25.9467C40.7584 25.5858 39.7021 25.4053 38.6387 25.4133C35.2 25.4133 32.772 27.1467 32.7574 29.6267C32.7387 31.4613 34.4907 32.4853 35.8067 33.0933C37.1614 33.7187 37.6174 34.1173 37.6107 34.676C37.6014 35.532 36.5294 35.924 35.528 35.924C34.2326 35.9543 32.9509 35.6537 31.804 35.0507L31.316 37.908C32.5565 38.3664 33.8696 38.5973 35.192 38.5893C38.8507 38.5893 41.2254 36.8773 41.252 34.228C41.2587 32.7747 40.332 31.6693 38.324 30.7587Z" fill="white"/>
<path d="M50.6761 25.6439H47.9868C47.6088 25.5955 47.2255 25.673 46.896 25.8644C46.5665 26.0557 46.3093 26.3503 46.1641 26.7026L40.9961 38.3999H44.6508C44.6508 38.3999 45.2481 36.8266 45.3828 36.4813H49.8401C49.9441 36.9293 50.2641 38.3946 50.2641 38.3946H53.4934L50.6761 25.6439ZM46.3854 33.8746C46.5294 33.5053 47.9494 29.8586 48.2334 29.0866C48.7028 31.2866 48.2454 29.1519 49.2734 33.8746H46.3854Z" fill="white"/>
<path d="M22.732 25.6413L19.324 34.348L18.9614 32.5787L17.7414 26.712C17.6525 26.3721 17.4437 26.0758 17.1537 25.8776C16.8636 25.6794 16.5117 25.5927 16.1627 25.6333H10.5507L10.5067 25.9C11.7827 26.2011 13.0124 26.6724 14.1627 27.3013L17.256 38.3907H20.9387L26.4174 25.6467L22.732 25.6413Z" fill="white"/>
</svg>
