<svg width="60" height="61" viewBox="0 0 60 61" fill="none" xmlns="http://www.w3.org/2000/svg">
<g clip-path="url(#clip0)">
<path d="M0.00549316 44.7654V44.768C0.0415153 46.1008 0.0535226 47.4413 0.27734 48.7658C0.515566 50.167 0.856095 51.5335 1.50569 52.8053C2.38399 54.5266 3.58641 55.9808 5.11295 57.1678C6.2061 58.0203 7.40035 58.6973 8.72236 59.1243C10.6498 59.746 12.6384 59.9842 14.6562 59.996C15.915 60.0039 17.1731 60.0354 18.4325 60.0301C27.5778 59.9917 36.7233 60.0961 45.8691 59.9737C47.0825 59.9573 48.2763 59.8092 49.4674 59.5914C51.7503 59.1735 53.7678 58.1985 55.4939 56.6594C57.5057 54.8653 58.863 52.6691 59.4758 50.0188C59.8766 48.2864 59.977 46.529 59.9941 44.7651V44.4133C59.9941 44.2769 59.9422 14.4451 59.9374 14.0508C59.9242 12.9677 59.8442 11.8926 59.6413 10.8268C59.3942 9.52809 59.0452 8.26251 58.4235 7.08771C57.7667 5.84615 56.9442 4.73018 55.926 3.7547C54.3677 2.26027 52.5692 1.20362 50.4746 0.644555C48.5837 0.140246 46.6546 0.0278571 44.7111 0.0297783C44.7048 0.0210268 44.7011 0.0107274 44.7003 0H15.2885C15.2885 0.0100862 15.2885 0.0199322 15.2868 0.0297783C14.1838 0.0499506 13.0794 0.0415455 11.9821 0.177709C10.7802 0.327081 9.58953 0.552099 8.45196 0.972357C6.65998 1.63516 5.10286 2.66756 3.77293 4.04624C2.266 5.6072 1.20335 7.41359 0.640443 9.51656C0.137334 11.3928 0.0278269 13.3063 0.0251852 15.2335" fill="white"/>
<path d="M31.0624 46.5554L21.2274 46.3755C18.0431 46.3129 14.8508 46.438 11.7289 45.7886C6.97977 44.8184 6.64332 40.0613 6.29127 36.071C5.80617 30.4612 5.99397 24.7495 6.90941 19.1865C7.4262 16.0651 9.46 14.2025 12.6052 13.9998C23.2225 13.2643 33.9105 13.3514 44.5043 13.6946C45.6232 13.7261 46.7497 13.898 47.8529 14.0937C53.2987 15.0483 53.4315 20.4391 53.7845 24.9772C54.1366 29.5621 53.9879 34.1705 53.3151 38.7242C52.7752 42.4945 51.7423 45.6563 47.3834 45.9615C41.922 46.3606 36.586 46.682 31.1092 46.5797C31.1094 46.5554 31.078 46.5554 31.0624 46.5554ZM25.2804 37.01C29.396 34.647 33.4331 32.3233 37.5252 29.9761C33.4019 27.6131 29.3725 25.2894 25.2804 22.9422V37.01Z" fill="#FF0000"/>
</g>
<defs>
<clipPath id="clip0">
<rect width="60" height="60.0962" fill="white"/>
</clipPath>
</defs>
</svg>
