<svg width="32" height="24" viewBox="0 0 32 24" fill="none" xmlns="http://www.w3.org/2000/svg">
<path d="M16.7083 22.9875L10.1517 22.8677C8.02878 22.826 5.9006 22.9093 3.81933 22.4771C0.65324 21.8313 0.428943 18.665 0.19424 16.0091C-0.129157 12.2752 -0.00396038 8.47347 0.606332 4.77073C0.950862 2.6931 2.30673 1.45337 4.40353 1.31846C11.4818 0.828863 18.6071 0.886885 25.6696 1.1153C26.4155 1.13624 27.1665 1.25069 27.902 1.38096C31.5325 2.01633 31.6211 5.60446 31.8564 8.625C32.0911 11.6767 31.992 14.7441 31.5434 17.775C31.1835 20.2845 30.495 22.389 27.589 22.5922C23.9481 22.8578 20.3907 23.0717 16.7395 23.0036C16.7397 22.9875 16.7187 22.9875 16.7083 22.9875ZM12.8536 16.634C15.5974 15.0612 18.2888 13.5146 21.0169 11.9523C18.268 10.3794 15.5817 8.8328 12.8536 7.2705V16.634Z" fill="#FF0000"/>
</svg>
