<svg width="24" height="24" viewBox="0 0 24 24" fill="none" xmlns="http://www.w3.org/2000/svg">
<path fill-rule="evenodd" clip-rule="evenodd" d="M17.7636 2.89998C16.2524 2.89998 15.0273 4.12509 15.0273 5.63634C15.0273 7.14759 16.2524 8.3727 17.7636 8.3727C19.2749 8.3727 20.5 7.14759 20.5 5.63634C20.5 4.12509 19.2749 2.89998 17.7636 2.89998ZM13.2273 5.63634C13.2273 3.13097 15.2583 1.09998 17.7636 1.09998C20.269 1.09998 22.3 3.13097 22.3 5.63634C22.3 8.1417 20.269 10.1727 17.7636 10.1727C16.3119 10.1727 15.0195 9.49081 14.1892 8.42985L9.41672 10.8161C9.51846 11.1935 9.57273 11.5903 9.57273 11.9999C9.57273 12.3805 9.52586 12.7501 9.43757 13.1034L14.241 15.5051C15.0728 14.4814 16.3418 13.8273 17.7636 13.8273C20.269 13.8273 22.3 15.8583 22.3 18.3636C22.3 20.869 20.269 22.9 17.7636 22.9C15.2583 22.9 13.2273 20.869 13.2273 18.3636C13.2273 17.925 13.2895 17.501 13.4056 17.0998L8.66128 14.7277C7.83339 15.8261 6.51781 16.5362 5.03636 16.5362C2.531 16.5362 0.5 14.5052 0.5 11.9999C0.5 9.4945 2.531 7.4635 5.03636 7.4635C6.48813 7.4635 7.78061 8.14546 8.61094 9.20651L13.3833 6.82032C13.2816 6.44287 13.2273 6.04595 13.2273 5.63634ZM2.3 11.9999C2.3 10.4886 3.52511 9.2635 5.03636 9.2635C6.54762 9.2635 7.77273 10.4886 7.77273 11.9999C7.77273 13.5111 6.54762 14.7362 5.03636 14.7362C3.52511 14.7362 2.3 13.5111 2.3 11.9999ZM15.0273 18.3636C15.0273 16.8524 16.2524 15.6273 17.7636 15.6273C19.2749 15.6273 20.5 16.8524 20.5 18.3636C20.5 19.8749 19.2749 21.1 17.7636 21.1C16.2524 21.1 15.0273 19.8749 15.0273 18.3636Z" fill="white"/>
</svg>
